<svg width="390" height="34" fill="none" xmlns="http://www.w3.org/2000/svg"><path fill-rule="evenodd" clip-rule="evenodd" d="m390 18.51-16-4c-1.131-.266-2.328-.55-3.588-.849C352.738 9.471 322.805 2.377 292 .51c-32-2-65 2-97 10-7.415 1.797-14.779 3.746-22.116 5.688C147.569 22.898 122.585 29.51 97 29.51c-32 0-65-11-81-17l-16-6V34h390V18.51Z" fill="#3EFFA2" fill-opacity=".5"/><path fill-rule="evenodd" clip-rule="evenodd" d="m0 18.51 16-4c1.13-.266 2.328-.55 3.588-.849C37.262 9.471 67.195 2.377 98 .51c32-2 65 2 97 10 7.415 1.797 14.779 3.746 22.116 5.688 25.315 6.7 50.299 13.312 75.884 13.312 32 0 65-11 81-17l16-6V34H0V18.51Z" fill="#3EFFA2"/></svg>